<?xml version="1.0" encoding="utf-8"?>
<!-- Generator: Adobe Illustrator 28.2.0, SVG Export Plug-In . SVG Version: 6.00 Build 0)  -->
<svg version="1.1" id="Layer_1" xmlns="http://www.w3.org/2000/svg" xmlns:xlink="http://www.w3.org/1999/xlink" x="0px" y="0px"
	 viewBox="0 0 1170 780" style="enable-background:new 0 0 1170 780;" xml:space="preserve">
<style type="text/css">
	.st0{fill:#594A42;}
	.st1{font-family:'Cinzel-Regular';}
	.st2{font-size:114.937px;}
	.st3{font-size:59.8979px;}
</style>
<g>
	<g>
		<g>
			<path class="st0" d="M550.3,220.7l11.3,43.2c11,0.3,20.4-2.3,23.4-9.3c0,0,0,0,0-0.1c0,0,0,0,0,0.1c3,7,12.3,9.7,23.4,9.3
				l11.3-43.2L608,227c0.2,1.3,0.9,6-0.4,8.4c-0.7,1.1-2,1.5-3.5,1.5c-1.5,0-3.1-0.3-5.1-0.1c-3.6,0.4-4.2,3.5-4.4,4.6
				c-0.2,1.7,0,5.7,3.6,9.9c1.2-9.1,5.1-6.8,5.5-5.2c0.5,1.9-0.4,4.5-2,6.1c-1.6,1.6-4.1,1.9-6.2,0.5c-2.3-1.3-3-4.6-3-6.2
				c0-2.6,0.8-5.3,2-7.7c0.5-0.9,1.1-1.8,1.6-2.7c1.5-2.3,3.4-4.4,5.5-6.3c-0.2,0-10.1,0.8-15.5,9.3c-0.4,0.7-0.8,1.4-1.1,2.2
				c-0.3-0.7-0.7-1.5-1.1-2.2c-5.4-8.5-15.2-9.3-15.5-9.3c2.1,1.9,4,4,5.5,6.3c0.6,0.9,1.2,1.7,1.6,2.7c1.2,2.4,2,5.1,2,7.7
				c0,1.6-0.6,5-3,6.2c-2.2,1.3-4.6,1.1-6.2-0.5c-1.6-1.5-2.5-4.2-2-6.1c0.3-1.7,4.3-3.9,5.5,5.2c3.6-4.2,3.8-8.2,3.6-9.9
				c-0.2-1.1-0.8-4.2-4.4-4.6c-2-0.2-3.6,0.1-5.1,0.1c-1.5,0-2.8-0.3-3.5-1.5c-1.4-2.4-0.6-7-0.4-8.4L550.3,220.7z M590,241.5
				c1-1.6,2.4-2.9,4.1-4.1c-1.9,2.8-3.1,6-3.3,9c-0.2,2.9,0.6,6.4,3.5,8.3c2.4,1.9,6.7,2,9.2-0.3c2.5-2.2,4-5.3,3.5-8.9
				c-0.4-4-5.9-5.9-9-3.4c0-0.1-0.3-2.1,1.5-2.4c1.3-0.2,3-0.2,4.7-0.4c1.7-0.1,4-1,4.8-2.9c0.8-1.8,0.4-5.5,0.4-5.6l3.7-3.1
				l-8.3,31.8c-6.1-0.2-13.6-1.6-15.7-6.6C587.6,249,587.9,245,590,241.5z M565.8,239.1c1.8,0.2,3.5,0.2,4.7,0.4
				c1.8,0.3,1.5,2.4,1.5,2.4c-3.1-2.5-8.5-0.6-9,3.4c-0.5,3.6,1,6.8,3.5,8.9c2.5,2.3,6.8,2.2,9.2,0.3c2.9-1.9,3.7-5.4,3.5-8.3
				c-0.2-3-1.4-6.1-3.3-9c1.6,1.1,3,2.5,4.1,4.1c2.1,3.5,2.4,7.4,0.8,11.2c-2.1,4.9-9.6,6.4-15.7,6.6l-8.3-31.8l3.7,3.1
				c0,0.1-0.4,3.8,0.4,5.6C561.8,238.2,564.1,239,565.8,239.1z"/>
			<path class="st0" d="M729.4,270.4c2,0,3.6-1.6,3.6-3.6c0-2-1.6-3.6-3.6-3.6c-0.7,0-1.2,0.2-1.8,0.5c0.8,0,1.6,0.4,2.1,1
				c0,0-0.1,0-0.1,0c-1.1,0-2.1,1-2.1,2.2c0,1.2,0.9,2.2,2.1,2.2c-0.5,0.5-1.2,0.9-2.1,0.9C728.2,270.1,728.8,270.4,729.4,270.4z"/>
			<path class="st0" d="M440.6,263.1c-2,0-3.6,1.6-3.6,3.6c0,2,1.6,3.6,3.6,3.6c0.7,0,1.2-0.2,1.8-0.5c-0.8,0-1.5-0.4-2.1-0.9
				c1.1,0,2.1-1,2.1-2.2c0-1.2-0.9-2.2-2.1-2.2c0,0,0,0-0.1,0c0.5-0.6,1.3-0.9,2.1-1C441.8,263.3,441.2,263.1,440.6,263.1z"/>
			<path class="st0" d="M804.5,359.6c6.6,3.4,14.5-0.5,15.8-1.2c-4.2-1.8-6.7-10.3-6.7-10.3c-0.5-1.4-2.3-5.3-4.6-8.1
				c0.2-0.1,4.5-1.1,5.6-6.3c-9.8-0.4-11.5-4.8-11.8-5.2c0-1.9-0.2-3.8-0.7-5.6c-1.8-5.4-7-9.7-12.7-10.8c-5.5-1.1-11.3,0.3-16,3.7
				c-7.9,5.7-12.1,15.8-11.9,27.1c0.1,8.4,7.9,25.9,7.9,25.9c3.6,8,5.6,14.6,6.2,20.8c0.5,5.4-2.1,6.9-2.1,6.9
				c-2.7,1.4-5.5,1.1-8.1-1.1c-4-3.3-9.3-15.1-12.7-23.4c-0.9-5.5-5.7-15.6-9.1-21.4c2.5-2.6,7.3-11.8,7.9-13.3
				c-1.8,0.3-3.9,1-9,0.2c0.7-4.5,2.2-9.5,4.4-14.9c4.8-4.2,8.3-8.6,9-13.8c5.9,5.2,15.2,6,16.1,5.9c-6.3-5.6,0.5-21,0.6-21.6
				c13.6-1.2,20.6-10.7,21.1-11.5c-12.5-2.3-14.6-11.3-16.2-18c-1.9-8.7-6-10.2-6.3-10.4c5.8-9.1,5.3-17.2,4.9-19.6
				c-1.1,1.9-5.8,11.9-33.1,5.2c-4-1-7.6-1.6-10.5-1.7c-3.1-0.1-6,0.9-8.4,3.1c-2.8,2.7-6,12.4-6.2,13.3l-9.1,2.1l-1.8,3.6
				l-10.6,3.4l1.5,5.6c-5.6,5.3-0.3,12.8-0.1,13.1c6.9-11.3,12.2-6.5,12.5-5.9c3.6,6.3-10.8,6.9-10.8,6.9l3.8,4.5
				c-2.7,1.3-5.1,2.7-7.2,4.2c-6.6-0.9-11.6-3-14.8-6.5c-4.3-4.7-3.9-10-3.9-10.2c0.1-0.8,0.8-7.6-2.2-11.2c2.8-2.1,6.3-2.8,8.5,0.1
				c2.9,2.7,0,7.8-0.5,12.5c-0.4,2.4,0.5,5.6,2.8,6.9c1,0.6,2,0.9,3,1.2c0.5,0.1,0.9,0.3,1.4,0.4c0-0.3-0.2-0.5-0.2-0.8
				c0-0.1,0-0.2,0-0.3c0-1.7,0.4-3.4,1.2-4.8c1-1.8,1.7-3.6,2.3-5.5c1-3.8,1-8.2-0.8-12c-0.3-0.5-0.6-0.9-0.9-1.4
				c1.4-0.4,3-0.6,4.7-0.6c3-0.1,9.4-1.5,11.7-9.3c-0.2,0.1-5.1,5.1-11.7,2.8c-2.5-0.9-5.8-2-9-1.1c-1.1,0.3-2.1,1-3.1,1.6
				c-0.1-0.1-0.3-0.1-0.4-0.2c9.2-9.6,1.4-18.8-0.1-20.8c-10.6-12-1.1-15.1-0.4-16c-16.8,2.9-17.4,6.3-17.5,6.6
				c-1-2.7-2.2-5.4-3.8-7.9c-4.1-6.6-10.8-11.8-18.3-13.8c-3.7-1.2-7.6-1.5-11.2-2.4c-0.9-0.3-1.8-0.7-1.8-1.6
				c0-0.5,0.2-0.9,0.5-1.4c0.7,0,1.4,0.1,2.1,0.1c3.6,0.3,7.4,0.6,11.2-0.4c9.1-2.5,7.2-11.9,7.2-12.2c-0.3,0.7-1.2,6.3-10.5,4.1
				c-6.8-1.6-15.6-2.8-21.7,3.3c-3,2.9-3.3,8.3-0.6,11.7c2.6,3.5,6.9,4.9,10.8,5.1c4.4,0.1,8.9,1.2,12.5,3.3
				c-0.7,0.3-8.2,2.3-7.7,10.3c0.1,2.8,3.6,7.4,6.3,8.6c-0.1-0.5-1.5-10.3,6-9.6c1.1,0.1,10.9,2.8,11.5,18c-0.6-0.3-1.1-0.7-1.8-0.9
				c-5-1.6-10.9,0.8-13.1,5.5c-1.3,3-1.5,6.1-0.3,10.7c0.3-0.5,2-3.1,4.8-3.1c4.2,0,6,5,4,8.6c-1.7,3.9-5.1,6.4-9.3,7
				c-4.3,0.7-8.4-0.1-13.2-1.4c-19.2-3.8-22.6,4.7-22.8,5.1c-1.3-2.1-3.5-3.5-6.1-3.5h-12h-7.6h-12c-2.6,0-4.8,1.5-6.1,3.5
				c-0.2-0.4-3.6-8.9-22.8-5.1c-4.8,1.3-8.9,2.1-13.2,1.4c-4.2-0.6-7.6-3-9.3-7c-2-3.6-0.3-8.6,4-8.6c2.8,0,4.5,2.7,4.8,3.1
				c1.2-4.6,1.1-7.7-0.3-10.7c-2.3-4.7-8.1-7.1-13.1-5.5c-0.6,0.2-1.2,0.6-1.8,0.9c0.7-15.2,10.4-17.9,11.5-18
				c7.5-0.7,6.1,9.1,6,9.6c2.7-1.2,6.1-5.8,6.3-8.6c0.5-8-7-10-7.7-10.3c3.6-2,8.1-3.2,12.5-3.3c3.9-0.2,8.2-1.6,10.8-5.1
				c2.7-3.4,2.4-8.8-0.6-11.7c-6.1-6.1-14.8-4.9-21.7-3.3c-9.2,2.2-10.2-3.4-10.5-4.1c0,0.3-2,9.7,7.2,12.2c3.8,1,7.6,0.8,11.2,0.4
				c0.7-0.1,1.4-0.1,2.1-0.1c0.3,0.5,0.4,0.9,0.5,1.4c0,0.9-0.9,1.3-1.8,1.6c-3.6,0.9-7.5,1.2-11.2,2.4c-7.5,2-14.2,7.1-18.3,13.8
				c-1.6,2.4-2.8,5.1-3.8,7.9c-0.2-0.3-0.7-3.7-17.5-6.6c0.7,0.9,10.2,4.1-0.4,16c-1.5,2.1-9.3,11.3-0.1,20.8
				c-0.1,0.1-0.3,0.2-0.4,0.2c-1-0.6-1.9-1.3-3.1-1.6c-3.2-0.9-6.4,0.2-9,1.1c-6.6,2.2-11.5-2.7-11.7-2.8c2.3,7.7,8.7,9.1,11.7,9.3
				c1.7,0,3.3,0.2,4.7,0.6c-0.3,0.5-0.6,0.9-0.9,1.4c-1.9,3.8-1.9,8.1-0.8,12c0.5,1.9,1.2,3.8,2.3,5.5c0.7,1.4,1.2,3.1,1.2,4.8
				c0,0.1,0.1,0.2,0,0.3c0,0.3-0.1,0.5-0.2,0.8c0.5-0.1,1-0.2,1.4-0.4c1-0.3,2-0.6,3-1.2c2.3-1.3,3.2-4.5,2.8-6.9
				c-0.5-4.7-3.3-9.8-0.5-12.5c2.2-2.9,5.7-2.2,8.5-0.1c-3,3.6-2.3,10.4-2.2,11.2c0,0.2,0.5,5.5-3.9,10.2c-3.2,3.4-8.3,5.5-14.8,6.5
				c-2.2-1.5-4.5-2.9-7.2-4.2l3.8-4.5c0,0-14.4-0.6-10.8-6.9c0.4-0.6,5.6-5.4,12.5,5.9c0.2-0.2,5.5-7.8-0.1-13.1l1.5-5.6l-10.6-3.4
				l-1.8-3.6l-9.1-2.1c-0.2-0.9-3.4-10.7-6.2-13.3c-2.4-2.2-5.2-3.2-8.4-3.1c-2.9,0.1-6.4,0.7-10.5,1.7c-27.3,6.7-32-3.3-33.1-5.2
				c-0.4,2.4-0.9,10.5,4.9,19.6c-0.3,0.2-4.4,1.7-6.3,10.4c-1.7,6.7-3.8,15.7-16.3,18c0.5,0.8,7.5,10.3,21.1,11.5
				c0.1,0.6,6.9,16,0.6,21.6c0.9,0.1,10.2-0.7,16.1-5.9c0.7,5.3,4.2,9.6,9,13.8c2.2,5.5,3.7,10.5,4.4,14.9c-5.1,0.8-7.2,0.1-9-0.2
				c0.5,1.5,5.4,10.7,7.9,13.3c-3.4,5.8-8.2,15.8-9.1,21.4c-3.3,8.3-8.6,20.1-12.7,23.4c-2.7,2.2-5.4,2.5-8.1,1.1
				c-0.1-0.1-2.6-1.5-2.1-6.9c0.5-6.2,2.5-12.8,6.2-20.8c0,0,7.7-17.5,7.9-25.9c0.2-11.3-4-21.5-11.9-27.1c-4.7-3.4-10.5-4.8-16-3.7
				c-5.8,1-10.9,5.4-12.7,10.8c-0.6,1.8-0.7,3.7-0.7,5.6c-0.3,0.4-2,4.8-11.8,5.2c1,5.3,5.4,6.3,5.6,6.3c-2.3,2.8-4.1,6.7-4.6,8.1
				c0,0-2.5,8.5-6.7,10.3c1.3,0.8,9.2,4.6,15.8,1.2c1.4,1.7,4.5,3.9,8.8,4.7c-4.8-10.6,2.5-15.9,4.2-17.9c9.9-9.8-2.6-16.7-3.1-17
				c0.1-1.1,0.4-2.1,0.8-3c1.8-3.6,5.3-3.9,6.8-3.9c2.4,0,4.9,0.9,6.5,2.5c4.5,4,6.7,10.4,6,17.3c-0.3,3.6-2,10.6-7.2,21.1
				c-3.5,8.4-6.7,16.6-6.9,26.4c-0.4,18.8,14.8,20.1,14.8,20.1c0.9,0.2,19.2,1.5,26.5-17.2c1.9,2.4,4,4.4,5.9,6.1
				c4.7,4.4,5.7,5.7,4.2,7.8c-1.3,1.9-3,3-5.3,3.3c-7.4,1.1-13.2-3.8-13.4-4c0,1.8-5.8,14.2,12.1,23.3v11.4
				c-6,1.6-12.1,4.2-18.5,8.1c-3.1,1.9-10.2,5.3-11,5.6c0.7,1.4,10,11.2,22,10.6c-2.9,3.4-7,4.7-7.6,5.1c1.9,0.7,19.3,7.4,36.1-7.8
				c-0.6,6.1-3.8,9.3-3.9,9.7c12-0.4,19.4-14.6,19.6-14.9c2.6,1.1,6.1,2.8,10.3,5.4c0.3,2.1,1.1,5.9,2.5,8.7c-3.3-1.8-7-6.9-7.2-7.2
				c0.1,0.4-0.3,18.2,18,22c4,3.6,8.6,6.6,13.3,9.1c-1.8,0.3-3.6,0.5-5.4,0.5c-6.4,0-12.5-2.2-18.2-5.3c-5.8-3-11.2-6.9-17.2-10.1
				c-5.9-3.2-13.3-5.5-20.6-3.7c-6.4,1.9-12.7,3.5-19.2,4.1c-4.3,0.5-8.7,0.6-12.9,0.1c-1.1-0.1-2.2-0.3-3.2-0.5
				c1.6,2.1,9.1,6.7,10.7,7.2c-0.8,0.4-1.5,0.9-2.3,1.2c-8.1,3.7-16.9,6.6-25.3,5.4c-4.1-0.6-8-2.5-10.4-5.5
				c-2.5-2.9-3.4-7.6-1.3-10.2c2.4-2.4,9.7-4.2,17.6,6.5c1.2-3.6,0.7-9.6-0.8-12.1c-3.7-6.1-11.6-8.3-17.6-7.3c-4,0.7-7.3,3-9.3,6.7
				c-3.1,5.7-3.2,14.1-0.1,21.5c1.7,4.1,5.5,7.4,11.1,9.6c4.6,1.8,9.9,2.8,15.2,2.8c5.6,0,11.1-1,15.9-3.1c2.5-1.1,5.3-2.6,8.4-4.2
				c14.3-7.5,32.1-16.8,50-3.5c18.5,13.8,35.5,9.8,48.1,5.2c5.6,2.1,11.3,3.7,17.1,4.9c6.3,2.8,24,8.7,39.6-1.7
				c8.2-5.4,14.7-15.4,15.7-29.6c1.1,14.2,7.6,24.2,15.7,29.6c15.7,10.4,33.3,4.5,39.6,1.7c5.8-1.3,11.6-2.9,17.1-4.9
				c12.6,4.6,29.6,8.6,48.1-5.2c17.9-13.3,35.7-4,50,3.5c3,1.6,5.8,3.1,8.4,4.2c4.7,2,10.3,3.1,15.8,3.1c5.3,0,10.6-0.9,15.2-2.8
				c5.6-2.3,9.4-5.6,11.1-9.6c3.1-7.4,3-15.8-0.1-21.5c-2.1-3.7-5.3-6-9.3-6.7c-6-1-14,1.2-17.6,7.3c-1.5,2.5-2,8.5-0.8,12.1
				c8-10.7,15.2-9,17.6-6.5c2.1,2.6,1.2,7.2-1.3,10.2c-2.5,3.1-6.3,5-10.4,5.5c-8.4,1.3-17.2-1.7-25.3-5.4c-0.8-0.4-1.5-0.9-2.3-1.2
				c1.6-0.6,9-5.1,10.7-7.2c-1.1,0.2-2.1,0.4-3.2,0.5c-4.2,0.5-8.7,0.4-12.9-0.1c-6.5-0.7-12.7-2.3-19.2-4.1
				c-7.3-1.9-14.6,0.5-20.6,3.7c-6,3.2-11.5,7-17.2,10.1c-5.7,3.1-11.9,5.3-18.2,5.3c-1.8,0-3.6-0.2-5.4-0.5
				c4.7-2.5,9.3-5.5,13.3-9.1c18.3-3.8,18-21.6,18-22c-0.2,0.3-4,5.4-7.2,7.2c1.5-2.9,2.2-6.6,2.5-8.7c4.2-2.5,7.7-4.3,10.3-5.4
				c0.2,0.4,7.6,14.5,19.6,14.9c-0.1-0.4-3.3-3.6-3.9-9.7c16.8,15.2,34.2,8.5,36.1,7.8c-0.6-0.4-4.8-1.8-7.7-5.1
				c12,0.6,21.3-9.3,22-10.6c-0.7-0.3-7.9-3.8-11-5.6c-6.4-3.9-12.5-6.4-18.5-8.1v-11.4c17.8-9.2,12.1-21.5,12.1-23.3
				c-0.2,0.1-6.1,5.1-13.4,4c-2.2-0.3-3.9-1.4-5.3-3.3c-1.5-2.1-0.5-3.5,4.2-7.8c1.8-1.7,3.9-3.7,5.9-6.1
				c7.3,18.7,25.6,17.4,26.5,17.2c0,0,15.2-1.4,14.8-20.1c-0.2-9.8-3.4-18.1-6.9-26.4c-5.2-10.5-6.9-17.5-7.2-21.1
				c-0.7-6.8,1.5-13.3,6-17.3c1.7-1.5,4.1-2.5,6.5-2.5c1.5,0,5,0.4,6.8,3.9c0.5,0.9,0.7,1.9,0.8,3c-0.5,0.4-13.1,7.2-3.1,17
				c1.7,2,9,7.3,4.2,17.9C800,363.5,803.2,361.3,804.5,359.6z M743.3,319.7c-2.2,1.3-12.9,9.1-15,17c6.4,4.1,11.9,5.1,13.3,5.3
				c-0.1,0.1-4.9,3.1-17.1,1.7c7.9,3.8,15.2,2.3,17,1.9c-1.1,1.4-4,6.5-13.3,6.9c-5.2,0.2-13.4-5-13.8-5.3c0.3-0.1,7.5-3.1,11.8-9.2
				c-3.3,3.2-7.4,5.5-11.6,6.7c-4.7,1.3-7.1,3.2-7.1,3.3c-1.9,0.5-3.7,0.8-5.5,1.2c1.5-2.7,3.5-5.1,6.1-6.2c1.5-0.8,3.7-0.6,6.2-1.5
				c2.3-0.7,4.3-1.9,6.2-3.3c3.7-2.8,6.6-6.5,8.4-10.7c2.5-5.5,3.1-11.5,2.8-17.3c1.8-0.2,3.5-0.5,5.2-0.9c0.2,2.1,0.4,9.2-3.8,15.4
				c6.3-4.8,7.7-13.5,7.9-16.6c1-0.3,3.8-1.5,4.2-1.7c0,1.5,0,7-4,13.3c5.4-4.7,7.5-13.1,7.8-15.9c0.5-0.4,1-0.7,1.4-1.2
				C750.4,302.7,751.1,315.2,743.3,319.7z M740.3,328c-1,3.1-1.7,6-2.1,8.8c-1.5-0.5-2.8-1-4.1-1.7C736.2,330.9,740,328.2,740.3,328
				z M707.7,409.4c2.1,3.3,5,5.9,8.2,7.7c4,2.3,8.2,3.7,12.5,4.6v15.8c-6.5-2-11.7,1.5-12.9,2.3c-7.1,1.5-14,4.1-20.4,7.6
				c-2.7-5.8-12.2-18.9-35.2-16.6c0.5,0.1,6.8,2.2,8.8,4.1c-3.4,0.7-6.7,3.5-7.8,6.7c-1.2,3-0.6,9,2.6,13.3c2.3-4.3,5.5-8.3,9.6-9
				c9.1-1.5,11.7,7.6,11.7,7.6c-9.9,6.7-18.9,14.7-27,21.8c-4.2,3.7-8.2,7.2-12,10.3c-15.7-1.4-26.7,9-26.8,9.1
				c-6.8-1.6-11.1-5.2-11.8-10.3c-0.7-4.4,2.2-11.6,8.2-10.1c2.4,0.6,3.3,4-0.7,10.6c11.1-1.3,12.6-15.2,7.9-20.1
				c-3.4-2.8-7.4-3.2-11-2.3c-3.8-0.7-13.9,0-17.5,10.5c-1.2-1.2-2.4-2.8-3.6-4.7c55.4-27.9,69.9-70.5,73.5-93l16.1,13.8
				c0.1,2.6,1,5.2,3.2,7.1c3.9,3.4,9.7,3.8,14.3,1.8c4.1-1.8,8.7-8.8,9.2-10.5c-6,0.2-13.6-4.3-13.6-8.2c0-4.7,5.4-8.5,12.1-8.5
				c6.1,0,10.9,3.2,11.8,7.3c-0.4,0.3-0.9,0.6-1.3,1c-2.9,2.1-5.6,4.8-7.7,8c-2.1,3.3-3.2,7.1-3.4,11
				C704.7,402,705.5,406.1,707.7,409.4z M693.7,448.2c-1.6,0.9-3.2,1.8-4.8,2.8c-7.1-14.2-21.7-8.2-24.4-4.5
				c-0.5-9.2,11.5-9.4,13.4-9.4c-4.6-3.8-10.8-5.2-11.4-5.3C682.9,431.9,691.3,442.7,693.7,448.2z M662.1,270.9
				c-0.3,0.3-1,0.1-1,0.1c-1.3-0.3-2.1-2.1-1.7-4c0.4-1.6,2-3.5,3.9-2.5C663.1,265,661.6,267,662.1,270.9z M665.3,360.3v-6.6
				c1.9,0.5,4.2,1,7,1.4c-0.2,0.8-1.3,5.7-3.8,11.3c1.2-0.8,2.3-1.7,3.3-2.7l8.8,7.6c0.6,2,1.4,4,2.6,5.7c-1-11,2.8-19.2,3.6-21.1
				c1.8-0.1,3.8-0.2,5.7-0.4c-2.2,2.1-4,4.5-5.3,7c7.4-9.3,17.5-7.6,18.3-7.5c-0.9,0-11.5,0.9-18.3,12.6c9.5-11.1,19.1-7.4,20.7-6.9
				c-9.7-1.2-17.8,7.1-20.7,12.7c8.7-11.3,19.1-7.4,20.6-6.9c-0.8-0.1-1.6-0.2-2.5-0.2c-9.2,0-16.6,5.8-16.6,13
				c0,4.8,3.5,8.8,8.5,11.1c-1.4,0.4-7.4,1.6-11.9-4c1.9,8.2,9.7,7.2,11,7.2c-0.2,0.1-13.1,7.1-14.9-9.3l-16.6-14.2
				C665.5,364.2,665.3,360.5,665.3,360.3z M678.3,317.3c0,0,0.6-5.3,2.5-8c0,0-2.2,9.2,5.1,12.6c1.5,3.1,3.7,6.4,7,9.9
				c-0.7,0.7-3.6,4.1-4.4,5c-5.6,0.6-10.1,0.3-13.3-0.3c0.5-1.7,0.8-3.7,0.2-5.8c-1-3.7-6.6-5.6-10-5v-35.3
				c1.8,3.6,4.3,7.5,7.7,11.1C671.5,304.9,669.4,312.4,678.3,317.3z M699.7,319.7c0.2,0.7,0.4,1.3,0.7,2c-2.1,1.7-3.8,3.7-5.2,5.9
				c-0.7-0.8-1.5-1.7-2.1-2.5C695.1,322.9,697.3,321,699.7,319.7z M692.8,324.7c-0.8-1-1.4-2.1-2-3.1c5-5.8,7.9-5.7,8.3-5.8
				c0,0.5,0.2,1.1,0.2,1.6C696.6,319.4,694.5,321.9,692.8,324.7z M699.2,313c-0.8,0.4-5.5,2.7-8.7,7.9c-0.4-0.8-0.8-1.6-1.1-2.4
				c4.2-5.8,9.6-7.4,10.1-7.5C699.3,311.6,699.2,312.2,699.2,313z M668.8,345.6c1.7-1.4,3.1-3.1,4.2-4.9c2.5,0.6,5.6,1.1,9.6,1.1
				c-2.2,1.2-4.6,1.9-7.3,1.5c4.1,2.6,9.8,0.9,13.6-1.8c2-1.3,3.7-3.1,5.3-4.8c0.6-0.7,1.2-1.2,1.7-1.8c0.9-0.8,1.8-1.6,2.8-2.2
				c0.3-0.2,0.7-0.3,1.1-0.5c2.1-1.2,4.5-2,7-3.1c1.3-0.5,2.7-1.1,4-2c0.1,0,7.7-4,5.8-12.8c-1.5,3.6-3.3,7-6.1,8.8
				c-0.3-6.9,2.2-11,4.7-13.4c1.6,0.2,3.2,0.3,4.7,0.4c0.6,4.4,0.6,9-1,13c-1.8,4.5-6,7.6-10.7,8.9c-1.2,0.4-2.4,0.6-3.6,0.8
				c-1.2,0.1-3.1,0.7-4.3,1.4c-2.6,1.5-4.6,3.6-6.4,5.6c-2.9,3.5-5.2,7.2-7.2,11.1c-9.8,0.3-17.2-1.1-21.4-2.1v-20.6
				C676.2,328.2,669.2,343.6,668.8,345.6z M722.4,310.5c0.6,0,5.8,0.1,7.8,0c0.1,5.6-0.8,11.2-3.3,16.2c-1.9,3.8-4.6,7-8,9.3
				c-1.7,1.1-3.5,2.1-5.5,2.6c-1.7,0.6-4.1,0.3-6.5,1.3c-4.8,2-7.7,6.2-9.7,10.2c0,0,0,0.1-0.1,0.1c-1.8,0.3-3.5,0.4-5.2,0.6
				c1.5-2.9,3.2-5.7,5.1-8.3c1.5-2,3.3-3.8,5.2-5c1.6-1.2,4.4-1.2,7.1-2.2c5.3-1.6,10.4-5.6,12.3-11.1
				C723.3,319.7,723.2,315,722.4,310.5z M682.4,355.9c-0.8,1.5-2,4.4-2.6,8.7l-5.2-4.5c0.9-1.4,1.6-2.9,2.1-4.5
				C678.5,355.8,680.4,355.9,682.4,355.9z M718.2,381.8c0.1-0.1,0.2-0.2,0.3-0.3c1.6-1.5,3.2-3.1,4.8-4.8c0.8-0.8,1.7-1.6,2.4-2.6
				c2.2-2.9,3.7-6.7,2.9-10.3c-0.4,4.1-2.5,7-5.3,9.4c0-0.1,0-0.2,0-0.2c4.3-5.4,4.7-13.2,4.6-16c1.2,0.1,2.4,0,3.7-0.2
				c1.9,4.8,1.5,10.4-0.3,15.1c-2.1,5.2-6.2,9.2-11,11.8c-3,1.5-5.9,3.6-8.6,5.9C713.3,386.9,715.6,384.2,718.2,381.8z M719.4,354.9
				c0,0,0.6,0.3,1.5,0.7c-0.1,0.4-0.2,0.9-0.7,1.5C719.9,356.4,719.7,355.6,719.4,354.9z M721.7,361.9c-0.1-0.4-0.2-0.8-0.3-1.3
				c0.4-1,1-2,1.4-4.4c0.4,0.1,0.8,0.2,1.3,0.3C723.5,358.1,723,360.1,721.7,361.9z M725.1,356.8c0.7,0.1,1.5,0.2,2.4,0.3
				c-0.6,2.7-1.8,8.3-4.7,10.5c0-0.3-0.1-0.6-0.1-0.9C724.5,362.5,725,358.6,725.1,356.8z M713.5,274.3c-1.2-3.5-6.2-3.5-6.3-3.5
				c1.5-1.8,4-3.1,4-3.1c-8.7,1.3-11.7,6.6-11.7,6.6c-1.1-3,3.5-6.7,4.4-7.5l-3.3-1.7l8.8-2.8l1,1.5l-2.5,2.4l9-3l-3.6-1.7l4.7-3.3
				l-7.5,2l0.7-1.4l7.5-1.7c1,0.9,5,5.3,5.9,6.5c1.8-2.6,4.5-3,5-3c3.2,0,5.8,2.6,5.8,5.8c0,2.4-1.4,4.4-3.5,5.3
				c-0.7,0.3-1.5,0.5-2.4,0.5c-0.2,0-7.9-4.7-15.8,0.3c2.4-0.3,6.8,0.4,8.9,1.3c-0.1,0-2.1-0.2-7.4,2.3c2.4-0.3,5.2-0.3,7.4,0.6
				c-2.1,0.4-4,1-5.7,2c1.6-0.2,3.2-0.2,4.8,0c-2.6,1.7-6,3.3-10.5,4.7c-1.6,0.5-3.2,1.1-4.7,1.7l-0.4-0.5
				C714.5,282.2,714.2,276.5,713.5,274.3z M712.5,288.1c9.5-3,15.4-6.8,18-11.3c5.2-0.5,9.4-4.8,9.4-10.2c0-5.7-4.7-10.4-10.4-10.4
				c-1.6,0-3.1,0.4-4.5,1.1c-0.9-1-1.7-2-2.8-3c0.8-4,2.3-8.3,4.9-10.6c1.5-1.3,3-2,5.1-1.9c2.5,0.1,6,0.8,9.8,1.6
				c9.1,1.9,20.1,4.2,28.8,0.6c-0.9,2.8-2.2,5.3-3.7,7.5c-2-0.6-13.5-2.6-26.1,2.5c28.5-4.3,31.3,7.8,32.2,11
				c0.9,3.2,1.9,6.7,3.6,9.9c1.9,3.4,6.9,7.4,11.7,8.4c0,0-7.1,6-14.9,5.6c0.9-6.9-0.3-14.4-5.6-19.7c-6.7-6.5-16-8-24.3-7.2
				c40.5,4.6,17,40.7,20.4,47c-1-0.5-7-3-11.5-9.4c1.7-3.3,2.2-7.1,1.4-10.5c-1.5-6.8-6.9-13.2-13.8-13.4c6.2,2,9.7,8.3,10.4,14
				c0.7,5.9-2.4,18.8-33.1,17.7c2.4-1,19.2-6.4,16.5-19.2c-0.1,6.6-4.9,11.3-10.4,12.9c-5.8,1.7-13.8,3.9-18.7,8
				c3.2-11.3,9.5-13.4,16.9-16c-3.9-0.6-11-0.5-18.3,8.1c-10.1,2.4-14.6,8.7-15,9.2C690.8,300.2,698.7,292.5,712.5,288.1z
				 M678.2,287.1c3.2,3.5,7.9,5.8,13.8,7.1c-2.8,2.6-5,5.5-6.5,8.5c-0.2-0.6-0.8-6.3-0.3-8.6c-1.2,2-2.6,6.8-2.5,8.3
				c-0.3-1-1.2-7.6-0.6-9.9c-1.2,2-2.3,6.1-2.5,8.3c-0.4-1.1-1.3-8-0.8-10.3c-1.2,2-2,4.3-2.4,6.7c-0.4-1-1.2-7.6-0.7-10
				c-1.9,3.5-2.4,7.1-2.4,7.2c-0.3-0.9-1.1-7.4-0.6-9.7c-0.9,1.5-1.5,3.2-2,5c-0.7-2.2-0.8-6.3-0.3-8.7c-1.1,1.8-1.8,3.8-2.2,5.9
				c-1.1-3.3-0.9-5.6-0.7-7.3c7.1-4.7,2.4-9.2,2.4-9.2c-0.1,3.2-3,4.5-4.2,0.6c-0.2-1.4-0.2-2.4,0.2-3.9c1.3-4.2,5.7-2.1,6-1.9
				c1.8,1.5,1.9,6.2,1.6,8.7C673.5,274.4,672.8,281.2,678.2,287.1z M685.1,256.5c2.2-4.3,8-2.8,10.8-2.1c3,0.7,6.2,0.2,8.7-1.3
				c0.9-0.5,1.6-1.2,2.3-1.8c-2.6,5.7-7.9,6.1-10.6,5.9c-1.9-0.2-4.1-0.2-6.3,0.3c-0.8,0.2-1.6,0.5-2.4,1c0.7,0.6,1.3,1.4,1.8,2.1
				c0.4,0.5,0.7,1,1,1.5c1.7,3.1,1.9,6.9,1.1,10.5c-0.4,1.8-1,3.6-1.9,5.2c-0.7,1.3-0.9,2.7-1,4.1c-0.2-0.7-0.4-1.4-0.5-2.1
				c-0.1-2.1,0.7-4,1.6-6.1c1.6-4.5,0.8-9.7-2.3-13.2c1.8,4.1,2.2,8.6,0.7,12.6c-0.7,2-1.7,4.4-1.3,6.8c0.1,0.9,0.5,1.8,0.9,2.6
				c-0.5-0.2-1-0.4-1.4-0.7c-1.8-1.3-2.2-3.4-1.8-5.5c0.4-2.2,1.2-4.4,1.9-6.7c2.3-8.5-5.7-11.5-8.6-11.1c-2.5,0.3-4.5,1.5-6.3,2.9
				c-1-0.2-2.2-0.2-3.6,0.1c-0.8,0.2-1.4,0.5-2,0.8c-0.1-0.1-0.2-0.2-0.3-0.3C674.4,250.8,684.4,256,685.1,256.5z M668.5,235
				c1,1.4,2.1,2.8,3,4c0.8,1,5,8.1-4.3,10.6C668.1,245.5,668.5,235.7,668.5,235z M651.8,216.7c-5.3-3.5-15.2,0.6-13.8,8.8
				c-1-1.4-1.6-3-1.5-4.7c0.1-4.9,4.3-7.3,8.8-8.3c1.9-0.4,3.8-0.6,5.5-0.6c-1-1.2-2.1-2.2-3.2-3c-5.2-3.9-11.7-5.1-17.6-5
				c-3.3,0-6.7-1-8.7-3.5c-2-2.3-2.1-6,0.1-8.5c2.1-2.5,5.6-3.9,9-4.3c3.5-0.4,7.1,0.1,10.7,0.7c1.7,0.2,3.5,0.4,5.2,0.3
				c-0.7,0.2-1.4,0.4-2.1,0.5c-2.4,0.4-4.8,0.1-7.4,0c-2.6,0-5.2,0.3-7.6,1.1c-2.3,0.8-5.1,2.2-5.4,4.9c1.8-5.3,10.5-5.3,12.9-4.9
				c7.8,1.2,10,0.2,11.1-0.2c-1,1.3-2.7,4-14.4,3.6c-0.3,0-3.9-0.1-5.7,1.3c-2,1.8-0.6,4.2,0.5,5.4c-0.9-1.5-1.2-3.8,0.2-4.3
				c0.7-0.3,1.5-0.4,2.3-0.4c-0.2,0.4-0.4,0.9-0.5,1.4c0,1.2,1.1,1.8,2,2.1c3.7,1.2,7.5,1.6,11,2.9c7.2,2.4,13.1,7.4,16.7,13.9
				c5.1,8.6,5.9,18.8,4,28.4c-0.6-1.7-1.6-3.2-2.9-4.5C661.5,238.4,662.6,224,651.8,216.7z M615.6,268.1c4.1-0.8,8.8-0.3,13.2,0.6
				c4.3,1.1,9.8,2.2,14.9,1.2c5.2-0.8,10.4-4.8,11.8-9.9c0.9-2.5,1.1-5.5-0.3-8.2c-1.3-2.6-4.3-4.3-7.1-3.9
				c-0.7,0.1-1.3,0.3-1.9,0.6c3.6-5.4,8.3-4.2,10.5-2.9c-4.9-4.8-9.7-0.7-10.7,0.1c0.2-0.5,0.4-1,0.7-1.4c2-2.7,5.7-3.9,8.8-2.9
				c3.2,0.9,5.5,3.8,5.9,7.4c0.1,1,0.7,5.4-3.1,11.3c2.5-1.8,4.8-4.5,5.8-7.7c12.3-1,13.5-9.3,12.9-11.3c-0.4-1.8-1.3-3.2-2-4.4
				c-1.6-2.5-3.4-4.6-4.6-6.8c-1.3-2.2-1.7-3.9-0.6-5.3c1.1-1.6,3.6-2.7,6-3.7c-2.2,1.1-4.3,2.8-4.5,5.8c0,2,1.4,3.4,2.2,4.6
				c0.9,1.3,1.9,2.6,2.7,3.9c1.8,2.5,3.2,5.4,3.2,8.4c0.1,3-1.7,5.8-4,8.1c2.7-1.7,5.1-4.5,5.3-8c0.3-3.5-1.4-6.7-3.1-9.4
				c-1.6-2.7-4.6-5.1-5.1-7.6c-0.1-2,1.4-3.7,3.2-5.1c-0.4,0.7-0.8,1.3-1,2.2c-0.5,1.6-0.1,3.7,0.7,5.1c1.6,2.7,3.4,4.3,4.8,6.3
				c3.3,3.8,4.5,7.4,3.3,12.2c-0.4,1.8-1.2,3.5-2,5.2c-2.7-0.7-12.3-2.1-19.5,8.4c-2.8,0.1-5.5,2.3-6.2,5.6
				c-0.7,2.9,0.3,5.8,2.3,7.3c-2.3,2.2-5.1,3.6-8.1,3.6c-2.5,0-5-0.5-7.4-1.4c-2.5-0.8-4.7-2.1-7.7-3.2c-2.9-0.8-6.1-1.5-9.5-0.6
				c-3.4,0.8-6.5,4.6-6,8.1c0.1,1.3,0.4,2.4,0.9,3.5c-0.7-0.3-9.5-2.8-4.9-9.9c1.1-1.7,3.3-2.6,5.4-2.7c-2.2-0.3-4.5,0.4-6.3,2
				c-1.7,1.6-3.6,5.5-1.6,8.8c-2.2-1.4-3.9-3.4-3.9-5.8C608.9,271.6,611.3,268.8,615.6,268.1z M569.2,270.3h12h7.6h12
				c1.6,0,2.8,1.3,2.8,2.8c0,1.6-1.3,2.8-2.8,2.8h-12h-7.6h-12c-1.6,0-2.8-1.3-2.8-2.8C566.4,271.6,567.7,270.3,569.2,270.3z
				 M563.9,278.2c1.3,1.4,3.2,2.3,5.3,2.3h12h7.6h12c2.1,0,4-0.9,5.3-2.3c3.2,9.6,18.1,8.2,19.2,8.2c-1.6-2.1-2.5-4.4-2.3-6.1
				c0.3-4.5,5.9-5.1,10.6-3.3c4.5,1.6,10.7,5,16.9,3.7c0.4-0.1,0.8-0.3,1.2-0.4l0,80.6c0,0.8,2.8,60-66.7,95.3
				c-69.6-35.4-66.8-94.6-66.7-95.3l0-80.6c0.4,0.1,0.8,0.3,1.2,0.4c6.2,1.2,12.4-2.1,16.9-3.7c4.8-1.7,10.3-1.2,10.6,3.3
				c0.2,1.8-0.7,4.1-2.3,6.1C545.8,286.4,560.7,287.7,563.9,278.2z M509.7,216c3.6-6.5,9.5-11.5,16.7-13.9c3.5-1.3,7.3-1.8,11-2.9
				c0.8-0.3,2-0.9,2-2.1c-0.1-0.5-0.2-1-0.5-1.4c0.9,0,1.6,0.1,2.3,0.4c1.4,0.5,1.1,2.8,0.2,4.3c1.1-1.2,2.5-3.6,0.5-5.4
				c-1.7-1.4-5.4-1.2-5.7-1.3c-11.6,0.4-13.3-2.4-14.4-3.6c1.1,0.4,3.3,1.5,11.1,0.2c2.4-0.4,11.1-0.4,12.9,4.9
				c-0.3-2.7-3.1-4-5.4-4.9c-2.4-0.8-5-1.1-7.6-1.1c-2.6,0-5,0.4-7.4,0c-0.7-0.1-1.4-0.3-2.1-0.5c1.8,0.2,3.5,0,5.2-0.3
				c3.6-0.5,7.2-1.1,10.7-0.7c3.5,0.4,6.9,1.7,9,4.3c2.1,2.5,2.1,6.1,0.1,8.5c-2,2.4-5.4,3.4-8.7,3.5c-5.8-0.1-12.3,1.1-17.5,5
				c-1.2,0.9-2.2,1.9-3.2,3c1.8,0,3.7,0.2,5.5,0.6c4.6,1,8.7,3.4,8.8,8.3c0.1,1.7-0.5,3.3-1.5,4.7c1.4-8.3-8.5-12.4-13.8-8.8
				c-10.8,7.3-9.7,21.7-9.6,23.3c-1.3,1.3-2.3,2.8-2.9,4.5C503.8,234.8,504.7,224.7,509.7,216z M502.8,249.6
				c-9.4-2.4-5.1-9.5-4.3-10.6c0.9-1.3,2-2.6,3-4C501.5,235.7,501.9,245.5,502.8,249.6z M489.7,234.9c1.4-2,3.2-3.6,4.8-6.3
				c0.8-1.4,1.2-3.4,0.7-5.1c-0.2-0.9-0.6-1.5-1-2.2c1.8,1.4,3.3,3.2,3.2,5.1c-0.5,2.5-3.5,4.9-5.1,7.6c-1.7,2.7-3.4,5.9-3.1,9.4
				c0.2,3.5,2.7,6.3,5.3,8c-2.3-2.2-4-5.1-4-8.1c0-3,1.5-5.8,3.2-8.4c0.8-1.3,1.8-2.6,2.7-3.9c0.8-1.2,2.2-2.6,2.2-4.6
				c-0.2-3-2.3-4.6-4.5-5.8c2.4,1,4.9,2.2,6,3.7c1.1,1.3,0.7,3.1-0.6,5.3c-1.2,2.2-3,4.3-4.6,6.8c-0.8,1.3-1.6,2.6-2,4.4
				c-0.6,2,0.7,10.3,12.9,11.3c1.1,3.2,3.3,5.9,5.8,7.7c-3.7-5.9-3.2-10.3-3.1-11.3c0.5-3.5,2.8-6.5,6-7.4c3.1-1,6.8,0.2,8.8,2.9
				c0.3,0.4,0.5,0.9,0.7,1.4c-0.9-0.9-5.8-4.9-10.7-0.1c2.2-1.3,6.9-2.5,10.5,2.9c-0.6-0.3-1.2-0.5-1.9-0.6
				c-2.9-0.4-5.8,1.3-7.1,3.9c-1.4,2.6-1.2,5.6-0.3,8.2c1.4,5.2,6.6,9.1,11.8,9.9c5.1,1,10.6,0,14.9-1.2c4.4-0.9,9-1.4,13.2-0.6
				c4.3,0.7,6.7,3.5,6.5,7.9c0,2.5-1.7,4.4-3.9,5.8c1.9-3.3,0.1-7.3-1.6-8.8c-1.7-1.6-4.1-2.2-6.3-2c2.2,0.1,4.3,1.1,5.4,2.7
				c4.6,7-4.2,9.6-4.9,9.9c0.5-1.1,0.8-2.2,0.9-3.5c0.5-3.6-2.6-7.3-6-8.1c-3.4-0.9-6.6-0.3-9.5,0.6c-3.1,1.1-5.3,2.4-7.7,3.2
				c-2.4,0.9-5,1.4-7.4,1.4c-3,0-5.8-1.4-8.1-3.6c2-1.5,3-4.4,2.3-7.3c-0.7-3.2-3.4-5.5-6.2-5.6c-7.2-10.5-16.8-9.1-19.5-8.4
				c-0.8-1.7-1.6-3.4-2-5.2C485.3,242.4,486.4,238.8,489.7,234.9z M555.3,485.1c-4-6.6-3-10-0.7-10.6c5.9-1.6,8.8,5.7,8.2,10.1
				c-0.8,5.1-5.1,8.7-11.8,10.3c-0.1-0.1-11.2-10.5-26.8-9.1c-3.8-3.1-7.8-6.5-12-10.3c-8.1-7.1-17.1-15.1-27-21.8
				c0,0,2.6-9.1,11.7-7.6c4.1,0.7,7.3,4.8,9.6,9c3.2-4.3,3.9-10.3,2.6-13.3c-1.1-3.2-4.4-6.1-7.8-6.7c2-1.9,8.3-4,8.8-4.1
				c-23-2.3-32.5,10.8-35.2,16.6c-6.5-3.5-13.3-6.1-20.4-7.6c-1.2-0.8-6.4-4.3-12.9-2.3v-15.8c4.3-0.9,8.6-2.3,12.5-4.6
				c3.2-1.8,6.1-4.4,8.2-7.7c2.1-3.3,3-7.5,2.8-11.2c-0.2-3.8-1.3-7.7-3.4-11c-2.1-3.2-4.8-5.9-7.7-8c-0.4-0.3-0.8-0.6-1.3-1
				c0.8-4.1,5.7-7.3,11.8-7.3c6.7,0,12.1,3.8,12.1,8.5c0,4-7.5,8.5-13.6,8.2c0.5,1.7,5.1,8.7,9.2,10.5c4.5,2,10.3,1.6,14.3-1.8
				c2.2-2,3.1-4.5,3.2-7.1l16.1-13.8c3.7,22.5,18.1,65.1,73.5,93c-1.2,1.8-2.4,3.4-3.6,4.7c-3.5-10.5-13.7-11.1-17.5-10.5
				c-3.6-0.9-7.6-0.5-11,2.3C542.7,469.9,544.3,483.8,555.3,485.1z M481.1,451c-1.6-1-3.2-1.9-4.8-2.8c2.3-5.5,10.8-16.2,27.1-16.5
				c-0.5,0.2-6.7,1.6-11.4,5.3c1.9,0,14,0.3,13.4,9.4C502.9,442.8,488.2,436.8,481.1,451z M446.8,373.1c0,0.1,0,0.2,0,0.2
				c-2.8-2.5-5-5.4-5.3-9.4c-0.7,3.5,0.7,7.4,2.9,10.3c0.7,0.9,1.6,1.8,2.4,2.6c1.6,1.6,3.2,3.2,4.8,4.8c0.1,0.1,0.2,0.2,0.3,0.3
				c2.6,2.4,4.8,5.1,6.4,7.9c-2.7-2.3-5.6-4.4-8.6-5.9c-4.8-2.6-8.9-6.6-11-11.8c-1.8-4.6-2.2-10.2-0.3-15.1
				c1.3,0.2,2.6,0.2,3.7,0.2C442.1,359.9,442.4,367.7,446.8,373.1z M447.4,366.6c-0.1,0.3-0.1,0.6-0.1,0.9
				c-2.9-2.2-4.1-7.8-4.7-10.5c0.8-0.1,1.6-0.2,2.4-0.3C445,358.6,445.5,362.5,447.4,366.6z M446,356.6c0.5-0.1,0.9-0.2,1.3-0.3
				c0.4,2.4,1,3.4,1.4,4.4c-0.1,0.4-0.2,0.8-0.3,1.3C447,360.1,446.5,358.1,446,356.6z M449.1,355.6c0.9-0.4,1.5-0.7,1.5-0.7
				c-0.3,0.7-0.5,1.4-0.8,2.2C449.4,356.5,449.2,356,449.1,355.6z M464.5,355c0.8-0.2,10.9-1.8,18.3,7.5c-1.3-2.5-3.2-4.9-5.4-7
				c2,0.2,3.9,0.3,5.7,0.4c0.8,1.9,4.6,10.1,3.6,21.1c1.2-1.7,2-3.7,2.6-5.7l8.8-7.6c1,1,2.1,1.9,3.3,2.7
				c-2.4-5.5-3.6-10.4-3.8-11.3c2.8-0.4,5.1-0.9,7-1.4v6.6c0,0.2-0.2,3.8,0.5,9.8l-16.6,14.2c-1.8,16.4-14.7,9.4-14.9,9.3
				c1.3-0.1,9.1,1,11-7.2c-4.5,5.7-10.4,4.4-11.9,4c5-2.2,8.5-6.3,8.5-11.1c0-7.2-7.5-13-16.6-13c-0.8,0-1.7,0.1-2.5,0.2
				c1.5-0.5,11.9-4.3,20.6,6.9c-2.9-5.6-11-13.9-20.7-12.7c1.6-0.5,11.2-4.2,20.7,6.9C476,355.9,465.4,355.1,464.5,355z
				 M448.3,324.3c1.9,5.5,7,9.4,12.3,11.1c2.7,1,5.5,1,7.1,2.2c1.9,1.2,3.6,3,5.2,5c1.9,2.5,3.6,5.4,5.1,8.3
				c-1.7-0.2-3.4-0.3-5.2-0.6c0,0,0-0.1,0-0.1c-2.1-4-4.9-8.2-9.7-10.2c-2.5-1-4.9-0.7-6.5-1.3c-1.9-0.5-3.8-1.5-5.5-2.6
				c-3.4-2.3-6.1-5.6-8-9.3c-2.5-4.9-3.4-10.5-3.3-16.2c2,0.2,7.2,0.1,7.8,0C446.8,315,446.7,319.7,448.3,324.3z M459.1,327.1
				c1.3,0.8,2.7,1.5,4,2c2.6,1.1,5,1.9,7,3.1c0.3,0.2,0.7,0.3,1,0.5c1,0.7,1.9,1.4,2.8,2.2c0.6,0.5,1.2,1.1,1.8,1.8
				c1.6,1.7,3.3,3.5,5.3,4.8c3.8,2.7,9.5,4.5,13.6,1.8c-2.7,0.4-5.1-0.3-7.3-1.5c4,0,7.1-0.5,9.6-1.1c1.2,1.8,2.5,3.5,4.2,4.9
				c-0.4-2-7.4-17.4,3.5-17.2V349c-4.2,1-11.6,2.4-21.4,2.1c-2.1-3.9-4.4-7.6-7.2-11.1c-1.8-2.1-3.8-4.1-6.4-5.6
				c-1.2-0.7-3.1-1.3-4.3-1.4c-1.3-0.2-2.5-0.5-3.7-0.8c-4.7-1.3-8.9-4.4-10.7-8.9c-1.6-4-1.7-8.5-1-13c1.6-0.1,3.2-0.2,4.7-0.4
				c2.5,2.4,5.1,6.4,4.7,13.4c-2.7-1.8-4.6-5.2-6.1-8.8C451.4,323.1,459,327.1,459.1,327.1z M489.2,309.3c1.9,2.7,2.5,8,2.5,8
				c9-5,6.9-12.5,5.3-15.8c3.4-3.5,5.9-7.5,7.7-11.1v35.3c-3.4-0.6-9,1.3-10,5c-0.5,2.2-0.3,4.1,0.2,5.8c-3.2,0.6-7.7,1-13.3,0.3
				c-0.8-0.9-3.8-4.3-4.4-5c3.3-3.5,5.5-6.8,7-9.9C491.4,318.5,489.2,309.3,489.2,309.3z M470.7,317.4c0.1-0.5,0.2-1.1,0.2-1.6
				c0.4,0.1,3.3,0,8.3,5.8c-0.6,1-1.3,2.1-2,3.1C475.5,321.9,473.4,319.4,470.7,317.4z M479.6,320.9c-3.3-5.2-7.9-7.5-8.7-7.9
				c-0.1-0.7-0.2-1.4-0.3-2.1c0.5,0.1,5.9,1.7,10.1,7.5C480.4,319.2,480,320,479.6,320.9z M476.9,325.1c-0.6,0.8-1.3,1.7-2.1,2.5
				c-1.4-2.2-3.1-4.2-5.2-5.9c0.3-0.7,0.5-1.4,0.7-2C472.8,321,474.9,322.9,476.9,325.1z M495.4,360.1l-5.2,4.5
				c-0.6-4.3-1.8-7.2-2.6-8.7c2,0,3.9-0.1,5.7-0.3C493.8,357.2,494.5,358.8,495.4,360.1z M507.9,270.9c0.5-3.9-1-5.9-1.3-6.3
				c1.9-1,3.5,0.9,3.9,2.5c0.4,1.9-0.4,3.7-1.7,4C508.9,271.1,508.3,271.2,507.9,270.9z M492,258.5c-2.9-0.5-10.9,2.6-8.6,11.1
				c0.7,2.4,1.5,4.5,1.9,6.7c0.5,2.2,0,4.3-1.8,5.5c-0.4,0.3-0.9,0.5-1.4,0.7c0.5-0.8,0.8-1.6,0.9-2.6c0.4-2.4-0.6-4.8-1.3-6.8
				c-1.5-3.9-1.1-8.4,0.7-12.6c-3,3.4-3.9,8.7-2.3,13.2c0.9,2.1,1.6,4,1.6,6.1c0,0.7-0.2,1.4-0.5,2.1c-0.1-1.4-0.4-2.8-1-4.1
				c-0.8-1.6-1.5-3.4-1.9-5.2c-0.8-3.6-0.6-7.4,1.1-10.5c0.3-0.5,0.7-1,1-1.5c0.5-0.7,1.2-1.5,1.8-2.1c-0.8-0.5-1.6-0.8-2.4-1
				c-2.2-0.5-4.4-0.4-6.3-0.3c-2.6,0.2-8-0.2-10.6-5.9c0.7,0.6,1.4,1.3,2.3,1.8c2.5,1.5,5.7,2,8.7,1.3c2.8-0.7,8.6-2.2,10.8,2.1
				c0.8-0.5,10.7-5.7,19.4,5.5c-0.1,0.1-0.2,0.2-0.3,0.3c-0.6-0.3-1.2-0.6-2-0.8c-1.5-0.4-2.6-0.3-3.6-0.1
				C496.5,260,494.5,258.8,492,258.5z M491.8,287.1c5.4-5.9,4.8-12.7,4.7-13c-0.3-2.6-0.2-7.2,1.6-8.7c0.2-0.2,4.7-2.4,6,1.9
				c0.4,1.5,0.5,2.5,0.2,3.9c-1.2,3.9-4.1,2.6-4.2-0.6c0,0-4.7,4.4,2.4,9.2c0.2,1.7,0.4,3.9-0.7,7.3c-0.4-2.1-1.1-4.2-2.2-5.9
				c0.5,2.3,0.4,6.5-0.3,8.7c-0.4-1.8-1.1-3.5-2-5c0.5,2.4-0.3,8.8-0.6,9.7c0-0.1-0.5-3.7-2.4-7.2c0.5,2.3-0.3,9-0.7,10
				c-0.4-2.4-1.2-4.7-2.4-6.7c0.5,2.4-0.4,9.2-0.8,10.3c-0.2-2.2-1.3-6.3-2.5-8.3c0.5,2.3-0.3,8.9-0.6,9.9c0.1-1.6-1.3-6.3-2.5-8.3
				c0.5,2.3-0.1,8-0.3,8.6c-1.5-3.1-3.6-5.9-6.5-8.5C483.9,292.9,488.5,290.6,491.8,287.1z M451.4,257.3l7.5,1.7l0.7,1.4l-7.5-2
				l4.7,3.3l-3.6,1.7l9,3l-2.5-2.4l1-1.5l8.8,2.8l-3.3,1.7c0.9,0.8,5.4,4.5,4.4,7.5c0,0-3-5.4-11.7-6.6c0,0,2.5,1.2,4,3.1
				c-0.1,0-5.1,0-6.3,3.5c-0.8,2.1-1.1,7.8,7.5,10.6l-0.4,0.5c-1.5-0.6-3.1-1.2-4.7-1.7c-4.5-1.4-7.9-3-10.5-4.7
				c1.6-0.2,3.2-0.3,4.8,0c-1.7-1-3.6-1.6-5.7-2c2.2-0.9,5-1,7.4-0.6c-5.3-2.5-7.3-2.3-7.4-2.3c2.2-1,6.5-1.7,8.9-1.3
				c-7.9-5-15.6-0.3-15.8-0.3c-0.9,0-1.7-0.2-2.4-0.5c-2-0.9-3.5-2.9-3.5-5.3c0-3.2,2.6-5.8,5.8-5.8c0.5,0,3.2,0.4,5,3
				C446.3,262.6,450.4,258.1,451.4,257.3z M406.1,309.2c3.3-6.3-20.1-42.4,20.4-47c-8.3-0.8-17.6,0.6-24.3,7.2
				c-5.2,5.3-6.5,12.7-5.6,19.7c-7.8,0.4-14.9-5.6-14.9-5.6c4.8-1,9.8-5,11.6-8.4c1.8-3.2,2.7-6.8,3.6-9.9c0.9-3.2,3.7-15.3,32.2-11
				c-12.7-5.1-24.2-3-26.2-2.5c-1.5-2.2-2.8-4.7-3.7-7.5c8.7,3.6,19.7,1.3,28.8-0.6c3.7-0.8,7.2-1.5,9.8-1.6c2-0.1,3.6,0.5,5.1,1.9
				c2.5,2.4,4,6.7,4.9,10.6c-1.1,1-1.9,2-2.8,3c-1.4-0.7-2.9-1.1-4.5-1.1c-5.7,0-10.4,4.6-10.4,10.4c0,5.4,4.1,9.6,9.4,10.2
				c2.6,4.6,8.5,8.3,18,11.3c13.8,4.4,21.7,12.1,24.4,22.5c-0.4-0.5-4.9-6.8-15-9.2c-7.4-8.6-14.4-8.7-18.3-8.1
				c7.4,2.5,13.7,4.7,16.9,16c-4.9-4.1-12.9-6.3-18.7-8c-5.5-1.6-10.4-6.3-10.4-12.9c-2.6,12.8,14.1,18.2,16.5,19.2
				c-30.7,1-33.8-11.8-33.1-17.7c0.6-5.7,4.1-11.9,10.4-14c-6.9,0.2-12.3,6.6-13.8,13.4c-0.8,3.4-0.3,7.2,1.4,10.5
				C413.2,306.2,407.1,308.6,406.1,309.2z M426.7,319.7c-7.8-4.6-7.1-17-7-17.1c0.4,0.5,0.9,0.8,1.4,1.2c0.3,2.8,2.4,11.2,7.8,15.9
				c-4-6.3-4-11.8-4-13.3c0.4,0.2,3.2,1.4,4.2,1.7c0.2,3.1,1.6,11.8,7.9,16.6c-4.2-6.2-4.1-13.3-3.8-15.4c1.7,0.4,3.5,0.7,5.2,0.9
				c-0.3,5.9,0.4,11.8,2.8,17.3c1.8,4.1,4.7,7.9,8.4,10.7c1.9,1.4,3.9,2.5,6.2,3.3c2.5,0.9,4.6,0.7,6.2,1.5c2.6,1.2,4.6,3.5,6.1,6.2
				c-1.8-0.4-3.6-0.7-5.5-1.2c-0.1-0.1-2.4-2-7.1-3.3c-4.2-1.2-8.3-3.5-11.6-6.7c4.2,6.1,11.5,9.1,11.8,9.2
				c-0.4,0.3-8.6,5.5-13.8,5.3c-9.3-0.4-12.3-5.5-13.3-6.9c1.8,0.4,9.1,1.8,17-1.9c-12.1,1.4-16.9-1.6-17.1-1.7
				c1.4-0.2,6.9-1.2,13.3-5.3C439.5,328.8,428.8,321,426.7,319.7z M429.7,328c0.3,0.2,4.1,2.9,6.2,7.1c-1.2,0.6-2.6,1.2-4.1,1.7
				C431.4,334,430.7,331.1,429.7,328z M375,343.5c-7.6,6-5.7,13.6-5.7,13.7c-0.1-0.1-4.9-3.7-0.8-10.3c-2,1-4.7,3.3-4.7,9
				c-3.6,2.1-6,0.5-6,0.5s1.9-12,8.9-16.1c0.1,0,3.7-1,5.3-3.7c-4.9,1-7.5-0.3-7.7-0.3c4.6-0.4,7.8-3,9.4-4.9
				C373.9,331.4,380.5,338.8,375,343.5z M397,405.4c0,0-11.7-1.4-11.1-15.6c0.4-9,3.3-16.8,6.6-24.7c0.8-1.9,6.4-11.6,7.5-22.5
				c0.8-8.2-1.9-16.1-7.4-21c-2.5-2.3-6-3.7-9.6-3.7c-4.6,0-8.5,2.2-10.5,5.8c1.5-3.6,5.1-6.5,9.1-7.2c4.5-0.9,8.9,0.3,12.5,2.9
				c7.9,5.6,10.2,15.7,10,23.3c-0.3,11.4-7.4,24.2-7.4,24.2c-3.9,8.5-6,15.6-6.5,21.8c-0.1,0.9-0.8,8.3,4.4,11.8
				c4.6,2.4,9.1,1.8,13.2-1.6c3.4-2.8,7-9.5,10-16c0.5,1.9,1.1,3.6,2,5.2C413.3,407.7,398.7,405.7,397,405.4z M417,414.9
				c0.3,0.2,3,4.6,11.8,3.7c-7.6-1.7-10-5.4-10.3-5.7c2.6,1.8,8.9,1.5,9.6,1.4c3.5-0.5,6.3-2.3,8.3-5.2c3.9-5.6-0.4-10.3-4.8-13.7
				c-21-16.2-1.7-41.4-1.5-41.6c0.1,0.1,0.2,0.1,0.3,0.2c2.7,1.7,5.3,2.6,7.8,3c-2.4,4.7-2.6,10.4-1.2,15.6
				c1.7,5.8,5.8,10.7,10.8,14.1c4.8,3.1,8.9,6.7,11.6,11.3v0c-3.7-3.6-8.2-6.3-12.6-8.2c-4.9-2.3-9.3-6-11.7-11
				c-2.3-4.9-3.1-11.1-0.8-16.4c-2.8,5.1-2.7,11.5-0.7,17.1c2.1,5.7,6.5,10.3,11.7,13.4c5,2.8,9.3,6.1,12.4,10.5
				c0.1,0.1,0.2,0.3,0.3,0.4c-4.1-4-9.3-6.8-14.3-8.7c-5-2-9.6-5.6-12.2-10.5c-2.5-4.8-3.6-11-1.6-16.4c-2.5,5.2-2.1,11.6,0.1,17.1
				c2.3,5.6,7,10,12.3,12.8c1.9,0.9,3.6,2.1,5.3,3.2c0.7,0.8,2,2.5,2.5,5.1c-2.3-3.1-5.9-6.4-11.7-7.7c0,0,19.5,9.9-4.9,24.2
				c1.4,0,2.7-0.2,4.1-0.4v16.8v0.2c6.4-2.1,15.9,0.4,16.3,4.8c-3.7-4-9.2-3.6-11.5-2.6c2.6-0.3,7.8,0.9,9.1,5.5
				c-0.5,0.2-0.9,0.4-1.5,0.6c-0.6-0.8-4.2-5.8-9.9-3.8c2.6,0.2,5.1,0.8,6.7,4.4c-6.9,0.9-16.2,0.2-16.2,0.2v-22
				C420.2,424.2,417.5,416.2,417,414.9z M462.8,452.2c-1,1.3-8,12.1-12.1,12.7c1.3-3.8,0.8-8.8,0.7-9.2c-0.6,0.5-18.4,14-30.2,12.8
				c4.7-3.5,6.1-6.3,6.6-7c-17.6,1.5-22.5-3.5-24.9-5c2.3-1.1,4.7-2.4,7.1-3.9c5.5-3.4,10.9-5.7,16.1-7.2v7.1
				c1.5,0.1,9.4,0.5,11.9,0.4c5.3-0.2,16.7,0.2,19.9-7.6c19.4,5.7,36.4,20.4,51.3,33.5c3.3,2.9,6.4,5.6,9.4,8.1
				c-1.8,0.8-3.4,1.9-5,2.8c0,0,0,0-0.1-0.1C484.6,460.2,463.3,452.4,462.8,452.2z M501.2,484.1c-9.2-4.2-12.3-9.9-12.9-10.9
				C492.2,476.3,496.5,479.9,501.2,484.1z M486,481.8c-10.9-0.4-15.1-11.1-16.4-14.9c1.9,2.8,5.3,7,11.1,8.6
				c-3.1-5.2-4.8-10.2-5.1-11.5c1.7,1.1,3.5,2.3,5.4,3.6c1.2,4.4,8,17,27.2,24.7c-1.2,0.6-2.5,1-3.8,1.5
				C504.2,493.8,492.7,489.2,486,481.8z M516.4,494.5c-12.6,5.1-29.9,11.9-49.3-2.5c-20.2-15.1-40.2-4.6-54.8,3.1
				c-2.9,1.5-5.6,3-8.1,4c-8.1,3.5-19.1,3.6-27.5,0.3c-4.4-1.8-7.4-4.3-8.6-7.2c-2.5-6-2.5-13.1-0.1-17.6c1.4-2.5,3.4-4,6.1-4.5
				c4.5-0.8,13.2,0.9,13.9,7.9c-2.9-4-11.8-5.7-16.3-2c-4.4,4.6-2.6,11.2,0.4,15.2c3.2,4.3,8.2,6.6,13.1,7.4
				c10.1,1.3,19.5-2.2,27.6-6.7c1.7-1,3.2-2.2,4.8-3.2c1.4-0.9,2.8-1.8,4.1-2.7c-1.2-0.2-2.5-0.5-3.7-0.8c-0.1,0-0.1,0-0.2,0
				c7.4-0.8,14.5-2.7,21.4-4.7c5.8-1.6,12.1,0.2,17.8,3.1c5.8,2.9,11.3,6.7,17.3,9.8c6,3.1,12.8,5.5,19.8,5.4c7,0,13.8-2.5,19.6-5.9
				c3-1.7,5.5-3.8,8.5-4.4c3-0.8,14.3-2.1,25.3,6.9c-2.7,0.5-5.6,0.1-6.1,0c-5.8-2.9-13.5-5.2-20.4-2.7
				C519.6,493.2,518.1,493.9,516.4,494.5z M566.7,500.4c-12.3,8.3-29.3,6.6-44.1-3.4c0,0,0,0,0.1,0c3-1.1,6.3-1,9.5-0.2
				c3.9,2.2,32.2,8.9,35.2-11.5c1-6.5-2.6-13-8.5-14.9c-3.9-1.4-9.2,1.5-9.2,5.7c-1-2.9-0.8-6.2,1-7.7c2.4-2.3,15.1-4.9,18.5,9.2
				c0.9-5.1-2.3-9.8-3.4-10.9c0.8,0.1,5.8,1.3,8,7.1c1.1,3,1.4,13-5.2,17.5c7-3.8,7.6-10.5,7.7-12c1.2-1.1,2.6-2.4,4.2-4.4
				C579.3,487.1,573.7,495.7,566.7,500.4z M585,466.3c-78.8-37.6-75.8-105-75.8-105.8v-85.9c0.6-0.1,0.8-0.2,1-0.3
				c0.4,0.7,1.1,2.1,3.5,3.8v82.5c-0.1,0.6-3.7,64,71.3,100.6c74.4-36,71.3-100,71.3-100.6v-82.5c2.5-1.7,3.2-3.1,3.5-3.8
				c0.2,0.1,0.4,0.2,1,0.3v85.9C659.4,436.2,585,466.3,585,466.3z M603.3,500.4c-7-4.7-12.5-13.3-13.7-25.5c1.6,1.9,3,3.3,4.2,4.4
				c0.1,1.5,0.7,8.2,7.7,12c-6.6-4.5-6.3-14.5-5.2-17.5c2.2-5.8,7.2-7,8-7.1c-1.1,1.1-4.3,5.8-3.4,10.9c3.4-14.1,16.1-11.5,18.5-9.2
				c1.8,1.5,2,4.8,1,7.7c0-4.2-5.3-7.1-9.2-5.7c-5.8,2-9.4,8.4-8.5,14.9c3,20.4,31.3,13.7,35.2,11.5c3.2-0.8,6.4-0.9,9.5,0.2
				c0,0,0,0,0.1,0C632.6,507,615.6,508.6,603.3,500.4z M675.8,498.8c7,0.1,13.8-2.2,19.8-5.4c6.1-3.1,11.6-6.9,17.3-9.8
				c5.7-3,12-4.7,17.8-3.1c6.9,2,14,4,21.4,4.7c-0.1,0-0.1,0-0.2,0c-1.2,0.3-2.5,0.6-3.7,0.8c1.3,1,2.7,1.8,4.1,2.7
				c1.6,1.1,3.1,2.3,4.8,3.2c8.1,4.5,17.5,8.1,27.6,6.7c4.9-0.8,10-3.2,13.1-7.4c3-4,4.7-10.6,0.4-15.2c-4.5-3.7-13.4-2-16.3,2
				c0.7-7,9.4-8.7,13.9-7.9c2.7,0.4,4.7,2,6.1,4.5c2.5,4.5,2.4,11.5-0.1,17.6c-1.2,2.9-4.2,5.4-8.6,7.2c-8.4,3.4-19.4,3.3-27.5-0.3
				c-2.4-1.1-5.2-2.5-8.1-4c-14.6-7.7-34.6-18.2-54.8-3.1c-19.4,14.4-36.6,7.5-49.3,2.5c-1.7-0.7-3.2-1.3-4.7-1.8
				c-7-2.5-14.6-0.2-20.4,2.7c-0.5,0.1-3.4,0.4-6.1,0c11-9,22.4-7.6,25.3-6.9c2.9,0.6,5.5,2.7,8.5,4.4
				C662,496.3,668.7,498.8,675.8,498.8z M700.4,466.9c-1.3,3.8-5.5,14.4-16.4,14.9c-6.7,7.4-18.2,12-18.5,12.1
				c-1.3-0.4-2.6-0.9-3.8-1.5c19.3-7.7,26-20.3,27.2-24.7c1.9-1.4,3.7-2.6,5.4-3.6c-0.3,1.3-2,6.3-5.1,11.5
				C695.1,474,698.6,469.7,700.4,466.9z M668.8,484.1c4.7-4.3,8.9-7.8,12.9-10.9C681.1,474.2,678,479.9,668.8,484.1z M760,452.5
				c2.5,1.5,4.8,2.8,7.1,3.9c-2.4,1.5-7.3,6.5-24.9,5c0.5,0.7,1.9,3.5,6.6,7c-11.8,1.2-29.6-12.3-30.2-12.8
				c-0.1,0.4-0.6,5.4,0.7,9.2c-4.1-0.6-11.1-11.4-12.1-12.7c-0.4,0.2-21.8,8-50.7,37.5c0,0,0,0-0.1,0.1c-1.6-0.9-3.2-2-5-2.8
				c3-2.5,6.1-5.2,9.4-8.1c14.8-13.1,31.8-27.9,51.3-33.5c3.2,7.9,14.6,7.4,19.9,7.6c2.5,0,10.4-0.3,11.9-0.4v-7.1
				C749.1,446.9,754.5,449.1,760,452.5z M738.4,395.4c-4.4,3.4-8.7,8.1-4.8,13.7c2,2.9,4.9,4.7,8.3,5.2c0.7,0.1,7,0.4,9.6-1.4
				c-0.2,0.3-2.6,4-10.3,5.7c8.8,0.9,11.6-3.5,11.8-3.7c-0.6,1.4-3.2,9.4-13.6,11.8v22c0,0-9.3,0.7-16.2-0.2
				c1.7-3.5,4.1-4.2,6.7-4.4c-5.7-2.1-9.3,3-9.9,3.8c-0.6-0.2-1-0.4-1.5-0.6c1.3-4.7,6.5-5.9,9.1-5.5c-2.3-1-7.8-1.5-11.5,2.6
				c0.4-4.3,9.9-6.9,16.3-4.8v-0.2v-16.8c1.4,0.2,2.7,0.3,4.1,0.4c-24.4-14.3-4.9-24.2-4.9-24.2c-5.8,1.4-9.4,4.6-11.7,7.7
				c0.6-2.6,1.8-4.3,2.5-5.1c1.7-1.1,3.4-2.3,5.3-3.2c5.3-2.8,10-7.3,12.3-12.8c2.2-5.5,2.6-11.9,0.1-17.1c2,5.4,0.9,11.5-1.6,16.4
				c-2.6,4.9-7.2,8.4-12.2,10.5c-5,1.9-10.1,4.7-14.3,8.7c0.1-0.1,0.2-0.3,0.3-0.4c3.1-4.4,7.3-7.7,12.4-10.5
				c5.2-3.1,9.6-7.7,11.7-13.4c1.9-5.6,2.1-12-0.7-17.1c2.3,5.3,1.4,11.5-0.9,16.4c-2.4,5-6.8,8.8-11.7,11
				c-4.4,1.9-8.9,4.6-12.6,8.2v0c2.8-4.6,6.8-8.2,11.6-11.3c5-3.4,9.1-8.3,10.8-14.1c1.4-5.2,1.2-10.9-1.2-15.6
				c2.5-0.4,5.2-1.2,7.8-3c0.1-0.1,0.3-0.1,0.3-0.2C740.1,354,759.4,379.2,738.4,395.4z M787,317.9c-3.6,0-7.1,1.3-9.6,3.7
				c-5.5,4.9-8.3,12.8-7.4,21c1.1,11,6.7,20.7,7.5,22.5c3.3,7.9,6.2,15.7,6.6,24.7c0.6,14.2-11.1,15.6-11.1,15.6
				c-1.6,0.3-16.3,2.3-22.7-17.2c0.8-1.6,1.5-3.3,2-5.2c3,6.5,6.6,13.2,10,16c4.1,3.3,8.7,4,13.2,1.6c5.2-3.5,4.5-10.9,4.4-11.8
				c-0.6-6.2-2.7-13.3-6.5-21.8c0,0-7.1-12.8-7.4-24.2c-0.2-7.6,2.1-17.6,10-23.3c3.7-2.7,8-3.9,12.5-2.9c4,0.7,7.6,3.6,9.1,7.2
				C795.5,320.1,791.6,317.9,787,317.9z M795,343.5c-5.5-4.7,1.1-12.1,1.2-12.1c1.7,1.9,4.8,4.4,9.4,4.9c-0.2,0-2.8,1.3-7.7,0.3
				c1.6,2.8,5.2,3.7,5.3,3.7c7,4.1,8.9,16.1,8.9,16.1s-2.3,1.6-6-0.5c0-5.8-2.7-8.1-4.7-9c4,6.6-0.8,10.2-0.8,10.3
				C800.7,357.1,802.6,349.5,795,343.5z"/>
		</g>
		<text transform="matrix(1 0 0 1 527.4609 383.7817)" class="st0 st1 st2">es</text>
	</g>
	<text transform="matrix(1 0 0 1 361.821 577.7642)" class="st0 st1 st3">Elviora Solisca</text>
</g>
</svg>
